<?xml version="1.0" standalone="no"?>
<!DOCTYPE svg PUBLIC "-//W3C//DTD SVG 20010904//EN"
 "http://www.w3.org/TR/2001/REC-SVG-20010904/DTD/svg10.dtd">
<svg version="1.0" xmlns="http://www.w3.org/2000/svg"
 width="237.000000pt" height="145.000000pt" viewBox="0 0 237.000000 145.000000"
 preserveAspectRatio="xMidYMid meet">

<g transform="translate(0.000000,145.000000) scale(0.100000,-0.100000)"
fill="#000000" stroke="none">
<path d="M1196 1441 c-4 -5 -23 -15 -44 -22 -20 -6 -50 -22 -65 -35 -16 -13
-40 -24 -54 -24 l-26 0 5 -119 c4 -104 9 -127 32 -176 28 -56 96 -120 142
-131 50 -13 146 64 183 146 17 37 21 66 21 163 l0 117 -25 0 c-14 0 -36 11
-48 23 -12 13 -35 27 -52 31 -16 4 -37 14 -47 22 -10 10 -18 11 -22 5z m18
-19 c3 -5 0 -9 -7 -9 -7 0 -21 -4 -32 -8 l-20 -8 20 16 c23 19 32 21 39 9z
m96 -49 c16 -15 19 -22 8 -18 -9 4 -19 13 -22 21 -3 8 -13 14 -23 14 -10 0
-25 5 -33 10 -11 8 -7 9 15 4 17 -3 41 -17 55 -31z m-170 20 c-8 -3 -28 -17
-43 -29 -16 -13 -38 -24 -50 -23 -16 1 -13 3 11 10 18 5 38 18 45 29 6 11 21
20 32 19 14 0 16 -2 5 -6z m100 -38 c0 -7 -4 -17 -10 -20 -18 -11 -10 -25 15
-25 14 0 25 -4 25 -10 0 -5 -11 -10 -25 -10 -22 0 -25 -4 -24 -37 2 -31 3 -33
6 -10 2 15 11 27 19 27 11 0 14 -15 14 -60 0 -45 -3 -60 -14 -60 -8 0 -17 12
-19 28 -2 15 -5 -6 -6 -45 -1 -70 0 -73 23 -73 31 0 73 34 91 74 9 21 14 25
14 12 1 -29 -36 -83 -73 -105 -42 -26 -101 -27 -142 -2 -37 22 -77 83 -72 108
3 12 8 7 16 -17 13 -38 55 -70 91 -70 20 0 21 5 20 73 -1 39 -4 60 -6 45 -2
-16 -11 -28 -19 -28 -11 0 -14 15 -14 60 0 45 3 60 14 60 8 0 17 -12 19 -27 3
-23 4 -21 6 10 1 33 -2 37 -24 37 -14 0 -25 5 -25 10 0 6 11 10 25 10 29 0 30
3 13 31 -11 17 -10 22 6 34 21 16 56 4 56 -20z m140 -115 c0 -74 -5 -122 -14
-145 -8 -19 -17 -35 -20 -35 -3 0 2 16 10 35 9 22 14 70 14 139 0 91 -2 105
-17 109 -14 4 -12 5 5 6 22 1 22 -1 22 -109z m-270 -32 c0 -5 -4 -8 -10 -8 -5
0 -10 10 -10 23 0 18 2 19 10 7 5 -8 10 -18 10 -22z m20 -3 c0 -5 -5 -3 -10 5
-5 8 -10 20 -10 25 0 6 5 3 10 -5 5 -8 10 -19 10 -25z m187 13 c-3 -8 -6 -5
-6 6 -1 11 2 17 5 13 3 -3 4 -12 1 -19z m-17 -8 c9 -16 8 -18 -5 -14 -8 4 -15
12 -15 20 0 20 7 17 20 -6z m-263 -92 c-3 -7 -5 -2 -5 12 0 14 2 19 5 13 2 -7
2 -19 0 -25z m17 -34 c3 -8 2 -12 -4 -9 -6 3 -10 10 -10 16 0 14 7 11 14 -7z
m124 -123 c27 -14 62 2 125 57 l42 36 -35 -38 c-19 -21 -52 -47 -73 -57 l-38
-20 -50 32 c-27 17 -59 45 -71 63 -18 26 -13 23 28 -15 28 -26 60 -52 72 -58z"/>
<path d="M1190 1355 c0 -8 7 -15 15 -15 8 0 15 7 15 15 0 8 -7 15 -15 15 -8 0
-15 -7 -15 -15z"/>
<path d="M0 850 c0 -7 402 -10 1185 -10 783 0 1185 3 1185 10 0 7 -402 10
-1185 10 -783 0 -1185 -3 -1185 -10z"/>
<path d="M0 550 l0 -270 1185 0 1185 0 0 270 0 270 -1185 0 -1185 0 0 -270z
m250 201 c-5 -11 -10 -49 -10 -85 l0 -66 65 0 65 0 0 66 c0 36 -5 74 -10 85
-10 18 -7 19 49 19 l60 0 -15 -35 c-20 -49 -20 -338 0 -377 l15 -28 -60 0
c-56 0 -59 1 -49 19 5 11 10 56 10 100 l0 81 -65 0 -65 0 0 -81 c0 -44 5 -89
10 -100 10 -18 7 -19 -52 -19 -48 0 -59 3 -50 12 15 15 17 380 2 409 -10 18
-7 19 50 19 57 0 60 -1 50 -19z m710 -26 l0 -44 -28 16 c-38 22 -62 12 -62
-26 0 -29 0 -29 55 -26 30 2 64 6 75 10 14 5 20 2 20 -10 0 -15 2 -15 22 -1
30 21 86 20 124 -3 29 -18 31 -18 53 0 30 25 101 25 130 2 29 -23 40 -78 41
-186 0 -49 5 -97 10 -108 10 -18 7 -19 -46 -19 -50 0 -55 2 -49 18 5 9 10 59
13 109 3 75 1 98 -12 118 -20 30 -49 32 -76 5 -17 -17 -20 -33 -20 -116 0 -52
5 -104 10 -115 10 -18 7 -19 -45 -19 -54 0 -56 1 -48 23 4 12 8 68 8 125 0 80
-3 105 -15 112 -24 15 -48 12 -70 -10 -17 -17 -20 -33 -20 -116 0 -52 5 -104
10 -115 10 -18 7 -19 -46 -19 -50 0 -55 2 -48 18 15 29 17 238 3 264 l-12 23
-10 -28 c-6 -19 -15 -27 -33 -27 -24 0 -24 0 -24 -113 0 -75 4 -117 12 -125 9
-9 -2 -12 -51 -12 -56 0 -62 2 -50 16 8 10 14 56 17 125 l5 109 -24 0 c-23 0
-24 -2 -24 -83 0 -93 -13 -124 -68 -157 -66 -40 -153 -13 -189 60 -39 77 -12
206 51 243 57 34 155 15 183 -36 12 -22 12 -22 18 8 4 21 11 30 25 30 12 0 21
8 23 20 13 85 33 105 107 105 l55 0 0 -45z m643 -76 c37 -17 47 -50 47 -159 0
-54 5 -111 11 -127 10 -27 11 -28 25 -8 12 16 14 45 12 135 -2 63 -7 122 -11
132 -6 11 -3 18 10 21 10 3 28 8 41 12 18 5 22 2 22 -15 l0 -21 26 20 c36 28
86 27 121 -3 27 -24 28 -27 33 -153 3 -70 9 -134 13 -140 6 -10 -5 -13 -47
-13 -55 0 -55 0 -46 26 13 34 13 200 0 225 -14 26 -55 24 -74 -3 -19 -26 -23
-197 -6 -229 10 -18 7 -19 -85 -19 -77 0 -95 3 -95 15 0 12 -6 11 -32 -5 -47
-28 -84 -26 -119 9 -34 34 -39 83 -13 120 10 13 46 37 81 53 54 24 64 32 61
51 -5 37 -58 35 -102 -3 l-36 -32 0 55 c0 55 0 56 33 60 65 8 107 7 130 -4z
m447 -10 l0 -20 26 20 c36 28 86 27 121 -3 27 -23 28 -28 34 -148 3 -67 9
-131 13 -140 7 -16 2 -18 -48 -18 -53 0 -56 1 -46 19 5 11 10 67 10 124 0 80
-3 107 -15 117 -23 19 -64 4 -76 -28 -11 -30 -8 -187 5 -214 7 -16 2 -18 -48
-18 -53 0 -56 1 -46 19 13 25 13 258 0 266 -18 11 -11 22 23 33 46 14 47 14
47 -9z"/>
<path d="M581 581 c-47 -47 -32 -176 22 -195 23 -9 31 -6 53 16 22 22 26 34
26 87 0 73 -20 111 -57 111 -14 0 -34 -9 -44 -19z"/>
<path d="M1532 462 c-36 -20 -43 -28 -40 -51 2 -20 9 -27 30 -29 33 -4 61 33
56 75 l-3 29 -43 -24z"/>
<path d="M0 250 c0 -7 402 -10 1185 -10 783 0 1185 3 1185 10 0 7 -402 10
-1185 10 -783 0 -1185 -3 -1185 -10z"/>
</g>
</svg>
