<?xml version="1.0" encoding="UTF-8" standalone="no"?>
<svg
   xmlns:dc="http://purl.org/dc/elements/1.1/"
   xmlns:cc="http://creativecommons.org/ns#"
   xmlns:rdf="http://www.w3.org/1999/02/22-rdf-syntax-ns#"
   xmlns:svg="http://www.w3.org/2000/svg"
   xmlns="http://www.w3.org/2000/svg"
   viewBox="0 0 981.47998 136.26666"
   height="136.26666"
   width="981.47998"
   xml:space="preserve"
   id="svg2"
   version="1.1"><metadata
     id="metadata8"><rdf:RDF><cc:Work
         rdf:about=""><dc:format>image/svg+xml</dc:format><dc:type
           rdf:resource="http://purl.org/dc/dcmitype/StillImage" /></cc:Work></rdf:RDF></metadata><defs
     id="defs6" /><g
     transform="matrix(1.3333333,0,0,-1.3333333,0,136.26667)"
     id="g10"><g
       transform="scale(0.1)"
       id="g12"><path
         id="path14"
         style="fill:#202124;fill-opacity:1;fill-rule:nonzero;stroke:none"
         d="m 119.355,720.883 c 0.102,-40.598 -0.3,-81.297 0.5,-121.899 102.102,-1.398 204.2,-0.199 306.301,-0.8 21.5,0.601 50,-0.598 62.699,20.3 11.5,28 5,59.2 0.102,87.899 -19.801,7.703 -40.199,15.5 -61.902,14.5 -102.5,0.203 -205.098,-0.098 -307.7,0 z m 0,82.703 c 102.102,-0.301 204.2,-0.203 306.301,-0.203 22.899,-1.5 44.602,6.203 64.699,16.601 4.2,34.2 15.602,93.801 -34.699,96.899 -111.699,3.902 -223.801,1.101 -335.601,1.301 -1,-38.2 -0.7,-76.399 -0.7,-114.598 z M 7.85547,1020.68 c 159.19953,1.5 318.30053,0.91 477.49953,0.3 52.102,4 111.903,-30.394 115.801,-86.394 4.602,-57.902 12.899,-130.703 -42.699,-167.902 50.199,-29.2 52.801,-91.301 49.699,-142.797 -2.101,-34.602 -5.199,-74.203 -33.301,-98.602 -28.8,-28.101 -71.597,-29.5 -109.398,-29.301 -152.402,0.899 -304.801,-1.3 -457.19919,1.102 -3.60156,18.699 -5.90234,37.699 -5.60156,56.699 0.39844,136.399 0.39844,272.899 0,409.301 -0.19922,19.297 1.89844,38.594 5.19922,57.594" /><path
         id="path16"
         style="fill:#202124;fill-opacity:1;fill-rule:nonzero;stroke:none"
         d="m 806.156,882.684 c -19.601,-57.7 -9,-119.598 -9.101,-179.2 2.203,-27.097 -2.797,-59.3 18,-80.5 23.601,-23.601 59.601,-23.398 90.703,-24 73.297,0.5 146.702,-0.199 220.002,0.301 31.2,0.5 71,6 84.9,38.5 17.2,43 8.6,90.598 10.8,135.598 -1.5,41.402 6.3,89.301 -22,123.902 -22.8,19.899 -55.6,19.301 -84.1,20.5 -76.6,-0.301 -153.204,0.699 -229.903,-0.402 -28.801,-1.801 -64.699,-5.5 -79.301,-34.699 z m 32.301,137.496 c 105.801,2.61 211.603,1 317.403,0.91 56,1 118.1,-17.11 151,-65.406 32.6,-54.801 29.5,-121.098 29.5,-182.5 -1,-63.7 5.7,-130.102 -18.9,-190.598 -18.2,-46.402 -65.9,-74.301 -113.5,-81.504 -62.4,-8.398 -125.5,-3.898 -188.2,-5 -63.803,1.004 -127.905,-2.797 -191.502,3.504 -50.403,4.598 -102.301,31.496 -123.301,79.699 -27.402,53.797 -19.902,115.699 -21.102,173.899 1.7,61.699 -7.597,127.402 20.801,184.8 23,53.2 82.801,79.496 137.801,82.196" /><path
         id="path18"
         style="fill:#202124;fill-opacity:1;fill-rule:nonzero;stroke:none"
         d="m 1445.66,961.285 c 34.7,45.095 95,60.805 149.7,59.895 125.4,0 250.9,1.5 376.4,-0.89 -0.2,-33.204 6.2,-67.907 -3.5,-100.106 -120.5,-6.399 -241.7,0.5 -362.4,-3.301 -21.4,-2.5 -46.3,-4.699 -61.1,-22.5 -20.4,-23.399 -18.1,-56.797 -22.5,-85.598 148.3,-2.203 296.7,2 444.9,-2.203 0.5,-29.699 3,-59.797 -2,-89.297 -147.3,-7.601 -295.4,2.801 -442.8,-5.402 3.3,-27.797 2.1,-58.301 17.8,-82.797 16.6,-24.301 48.4,-28.602 75.6,-29.602 118.3,-1.601 236.8,1.5 355.1,-1.5 2.8,-33.5 2.6,-67 0.8,-100.5 -122.1,-2.898 -244.3,-1 -366.4,-1.097 -57,-0.102 -121.6,10.699 -158.6,58.699 -39.7,58.199 -34.5,132.199 -34.6,199.398 0.6,69.399 -6.6,145.899 33.6,206.801" /><path
         id="path20"
         style="fill:#202124;fill-opacity:1;fill-rule:nonzero;stroke:none"
         d="m 2049.16,1020.38 c 37.5,1.6 75.2,1.41 112.8,0.21 1.6,-69.906 0.4,-139.805 0.8,-209.707 118.5,-0.098 237,-0.297 355.5,0.101 0.3,69.899 -0.7,139.801 0.7,209.696 37.5,1.11 75.1,1.2 112.7,-0.2 1.2,-174.394 1.4,-348.796 -0.1,-523.195 -37.5,-1.703 -75,-1.601 -112.4,-0.301 -1.8,71 -0.7,142.102 -0.7,213.2 -118.6,1.402 -237.2,0.699 -355.8,0.3 -0.1,-71 0.8,-142 -0.6,-213 -37.6,-2 -75.2,-2 -112.7,-0.101 -2.7,174.301 -2.3,348.703 -0.2,522.997" /><path
         id="path22"
         style="fill:#202124;fill-opacity:1;fill-rule:nonzero;stroke:none"
         d="m 2838.26,919.086 c -0.7,-55.703 -0.7,-111.402 0.1,-167.102 92.3,0.2 184.6,-0.101 276.9,0 26.4,0.102 59.1,3.399 73.3,29.5 11.7,36.301 13.6,77.5 -1.6,113 -15.4,23 -45.7,24.899 -70.7,25 -92.7,-0.199 -185.3,0.301 -278,-0.398 z m -116.8,99.894 c 148.1,5.4 296.4,1.2 444.6,2.31 48.3,2 101.4,-17.61 125.3,-62.005 24.7,-40.801 19.9,-90.301 20.2,-136 0.4,-37.101 -6.6,-76.199 -30.9,-105.5 -19.6,-25.801 -51.6,-36.199 -80.9,-46.398 44.9,-57.301 95.8,-110.602 134.1,-172.805 -42.9,-3.996 -85.9,-2.699 -128.8,-1.598 -40.7,55 -83.2,108.7 -124.3,163.5 -81,0.5 -162,0.098 -242.9,0.2 -1.5,-54.7 4.2,-109.899 -5.1,-164.2 -37.2,-0.601 -74.5,-1.101 -111.7,1.301 -1,173.699 -1.6,347.5 0.4,521.195" /><path
         id="path24"
         style="fill:#202124;fill-opacity:1;fill-rule:nonzero;stroke:none"
         d="m 4121.96,1019.88 c 36.9,2.21 74,2.1 111,0.5 0.3,-155.294 0.9,-310.595 -0.2,-465.896 2.5,-26.699 -15.7,-55.597 -44.1,-56.902 -41,-2.797 -82.4,-2.996 -123.3,0.801 -22.2,1.402 -34.9,22.402 -48.3,37.301 -92.6,120.902 -185,241.8 -277.2,362.902 -7,9.199 -18.6,12.199 -28,17.699 -3.3,-139.601 0.5,-279.199 -2,-418.801 -35.8,-1.5 -71.6,-2.898 -107.3,-0.3 -7.4,14.101 -3.4,31.3 -4.7,46.601 0.9,139.5 -0.6,279.098 0.7,418.598 -1.9,27.402 16.3,59.907 47,58.097 43.6,1.5 87.5,3.2 130.9,-1.89 18.3,-8.3 30.1,-25.805 42.9,-40.606 89.1,-117.601 178.8,-234.601 267.9,-352.199 7.7,-12 20.4,-18.902 32.7,-25.601 3.7,139.902 -0.1,279.8 2,419.696" /><path
         id="path26"
         style="fill:#202124;fill-opacity:1;fill-rule:nonzero;stroke:none"
         d="m 4346.26,953.285 c 33.5,52.805 100.4,69.805 159.5,67.895 139.2,-0.5 278.5,2.2 417.5,-1.2 8.9,-32.996 2.4,-68.394 3.9,-102.296 -137.2,-7.5 -274.9,0.5 -412.1,-4.098 -18.5,-2.703 -39.2,-2.102 -54.7,-14.004 -21.3,-14.398 -24.8,-42.199 -27.3,-65.699 -1.1,-50.199 -1.1,-100.598 0,-150.801 2.4,-23.398 5.6,-51.199 26.9,-65.598 27.3,-19.8 63,-16.902 95,-17.699 77,1 154.1,-1.101 231.2,0.899 19.4,-1.598 33.6,16.3 33.6,34.5 3,57.3 -0.9,114.8 2.1,172.101 33.8,2.399 67.7,2.199 101.6,1.199 6.4,-61.5 2.3,-123.398 3.5,-185 -1.5,-34 -0.6,-71.601 -21.2,-100.5 -18.2,-24.8 -51.2,-27.199 -79.3,-27 -110.3,0.602 -220.6,-0.902 -330.9,0.899 -53.8,0.301 -113.2,15.402 -145.5,62.101 -43.1,59.301 -29.3,135.899 -31.7,204.301 1.9,63.598 -9.3,133.699 27.9,190" /><path
         id="path28"
         style="fill:#202124;fill-opacity:1;fill-rule:nonzero;stroke:none"
         d="m 5042.26,965.984 c 35,40.806 91.2,55.806 143.4,55.106 125.8,0.39 251.7,1.09 377.6,-0.41 1.3,-33.895 1.6,-67.895 -0.8,-101.797 -118.7,-2.899 -237.6,0.301 -356.3,-1.598 -26.3,-2.402 -59.1,-4 -74.3,-29.199 -15.7,-23.402 -11.8,-53 -14,-79.602 147.2,-1.101 294.4,1.399 441.6,-1.398 1.3,-30.102 1.4,-60.203 0.7,-90.301 -147.3,-4.699 -294.7,-0.5 -442.1,-2.199 2.2,-30.301 -3.5,-65.402 17.9,-90.402 19.8,-21.801 51.3,-24.098 79,-25 115.7,-0.7 231.6,1.101 347.3,-0.801 2.6,-33.699 2.4,-67.5 0.9,-101.199 -122.3,-2.2 -244.6,-0.899 -366.9,-0.797 -57.1,-0.203 -122.2,11.398 -157.7,60.898 -43.3,63.399 -34.1,143.598 -35,216.301 -0.9,65.297 -2.3,137.398 38.7,192.398" /><path
         id="path30"
         style="fill:#202124;fill-opacity:1;fill-rule:nonzero;stroke:none"
         d="m 5758.26,918.984 c -0.5,-55.699 -0.7,-111.398 0.2,-167 92.6,0.2 185.2,-0.101 277.7,0 26.2,0 58.2,3.7 72.5,29.102 12.4,35 12.6,74.098 0.7,109.199 -13.1,26.797 -46.8,29.297 -72.9,29.199 -92.8,-0.3 -185.5,0.399 -278.2,-0.5 z m -116.6,99.996 c 144.7,5.61 289.6,1 434.4,2.5 46.8,2.31 98.4,-10.19 127.5,-49.597 39,-54.199 28.2,-125.301 25.6,-187.899 -5.4,-58.398 -54.3,-100.601 -109.2,-112.699 44.8,-57.398 96.6,-110.101 133.6,-173.101 -42.7,-3.399 -85.6,-2.399 -128.3,-1.2 -40.6,55.102 -83.2,108.5 -123.9,163.399 -81.1,0.801 -162.3,0.199 -243.4,0.301 -1.4,-54.602 3.8,-109.7 -4.5,-164 -37.4,-1 -74.9,-1.301 -112.2,1.101 -0.9,173.699 -1.7,347.5 0.4,521.195" /><path
         id="path32"
         style="fill:#202124;fill-opacity:1;fill-rule:nonzero;stroke:none"
         d="m 3392.66,1019.98 c 38.5,2.11 77.1,2.11 115.7,0.11 1,-174.106 1.1,-348.207 -0.1,-522.305 -38.5,-2.5 -77.1,-2.5 -115.6,0.098 -0.7,174 -0.6,348 0,522.097" /><path
         id="path34"
         style="fill:#facf21;fill-opacity:1;fill-rule:nonzero;stroke:none"
         d="m 6680.06,497.883 h -111.2 v 522.797 h 111.2 V 497.883" /><path
         id="path36"
         style="fill:#facf21;fill-opacity:1;fill-rule:nonzero;stroke:none"
         d="m 7109.23,488.066 h -117.92 v 522.804 h 117.92 V 488.066" /><path
         id="path38"
         style="fill:#facf21;fill-opacity:1;fill-rule:nonzero;stroke:none"
         d="m 6681.13,490.512 h -117.92 v 530.278 h 117.92 V 490.512" /><path
         id="path40"
         style="fill:#facf21;fill-opacity:1;fill-rule:nonzero;stroke:none"
         d="m 6733.25,916.262 v 104.568 h 627.82 V 916.262 h -627.82" /><path
         id="path42"
         style="fill:#202124;fill-opacity:1;fill-rule:nonzero;stroke:none"
         d="m 568.172,211.609 c -11.199,-45.746 -11.125,-94.711 -0.367,-140.4567 3.73,-2.7812 11.199,-8.3437 14.929,-11.1289 59.289,-5.4882 119.161,-7.1718 178.231,1.3204 11.051,8.3437 17.711,21.7382 17.348,35.5703 1.167,33.4489 1.167,66.9019 -1.247,100.2029 -1.828,3.879 -5.562,11.641 -7.39,15.52 -18.082,11.492 -39.965,10.609 -60.461,11.343 -37.035,0.731 -74.145,0.661 -111.18,-1.464 -11.129,0.293 -20.422,-6 -29.863,-10.907 z m 6.441,65.364 c 66.457,2.929 133.723,7.172 199.891,-2.633 37.476,-3.149 63.973,-41.942 62.656,-77.953 0.438,-45.016 4.535,-90.543 -3.441,-135.1175 C 827.789,23.9414 789.145,1.03125 753.426,1.62109 694.504,0.671875 635.508,-0.648438 576.66,2.57031 543.43,4.25 509.176,30.0898 506.32,64.5625 c -7.39,50.5035 -7.683,102.2535 0.219,152.7575 3.149,33.961 36.527,55.918 68.074,59.653" /><path
         id="path44"
         style="fill:#202124;fill-opacity:1;fill-rule:nonzero;stroke:none"
         d="m 1402.95,278.949 c 64.63,1.465 129.33,0.879 194.04,-0.437 -0.15,-17.278 -0.22,-34.551 0.14,-51.824 -66.82,-7.54 -134.45,2.125 -201.28,-5.122 -27.59,-2.855 -27.89,-34.988 -32.86,-55.628 77.58,-2.122 155.61,3.367 232.83,-2.926 -1.32,-14.86 -4.61,-28.84 1.09,-43.114 -77.8,-4.976 -155.9,-0.66 -233.78,-2.562 1.91,-19.7618 6.66,-39.3047 17.79,-55.9922 71.8,-11.3477 144.26,-0.1485 216.21,-6.0743 -0.29,-18.0078 -0.43,-35.9414 -0.43,-53.94919 -61.78,-0.730466 -123.56,-0.582029 -185.33,-0.28906 -28.26,0.21875 -60.97,3 -80.66,26.05855 -24.82,28.0313 -23.57,67.9219 -23.57,103.0552 0.44,40.406 -4.39,85.71 21.15,120.183 17.13,23.133 48.38,25.766 74.66,28.621" /><path
         id="path46"
         style="fill:#202124;fill-opacity:1;fill-rule:nonzero;stroke:none"
         d="m 2590.31,278.73 c 19.98,0.512 40.03,0.805 60.09,1.024 23.64,-74.879 43.99,-150.707 67.48,-225.6563 12.96,19.5429 17.06,43.1093 24.3,65.0663 17.2,51.02 31.4,102.988 50.65,153.344 26.94,10.687 59.07,11.637 85.57,-1.024 25.62,-71.804 47.72,-144.707 72.09,-216.9488 17.21,26.7187 19.91,59.3598 30.16,88.9338 15.01,44.793 24.23,91.269 39.67,135.992 21.08,0 42.23,-0.074 63.39,-0.293 -32.43,-90.98 -54.46,-185.3985 -89.3,-275.57816 -25.62,-3.441402 -51.89,-5.12109 -77.44,-0.80078 -26.13,37.10934 -32.72,84.39064 -48.31,126.62494 -12.37,32.277 -17.27,67.559 -35.57,97.422 -19.69,-64.777 -40.4,-129.336 -62.73,-193.2344 -4.53,-11.0508 -6.95,-25.76176 -19.39,-30.81254 -24.52,-5.1289 -49.7,-1.16797 -74.37,-0.14843 -23.57,44.64847 -30.45,95.30077 -47.65,142.36337 -11.78,44.867 -27.37,88.711 -38.64,133.726" /><path
         id="path48"
         style="fill:#202124;fill-opacity:1;fill-rule:nonzero;stroke:none"
         d="m 5116.46,279.316 c 18.88,-0.148 37.84,-0.074 56.8,0 2.63,-37.183 1.53,-74.511 1.68,-111.839 60.46,0 120.92,0.07 181.37,0.218 -0.29,37.035 -0.07,74.071 -0.14,111.11 19.98,0.218 39.96,0.293 59.94,0.07 0.08,-92.59 1.03,-185.2539 -0.58,-277.84375 -19.69,-0.070312 -39.31,-0.070312 -58.92,0.07031 -0.66,38.50394 -0.44,77.07814 -0.66,115.64844 -60.31,-0.145 -120.55,-0.363 -180.79,-0.07 -0.44,-38.3558 -0.07,-76.7816 -0.59,-115.21125 C 5155.18,1.17969 5135.85,0.960938 5116.53,0.589844 5112.87,93.4023 5112.8,186.578 5116.46,279.316" /><path
         id="path50"
         style="fill:#202124;fill-opacity:1;fill-rule:nonzero;stroke:none"
         d="m 5.30859,272.07 c 32.20311,10.395 67.26561,12.809 99.32441,0.586 41.351,-71.586 61.773,-153.343 102.324,-224.9997 38.793,71.8047 62.434,150.3397 98.961,223.1677 27.594,14.641 59.43,9.149 89.148,6.367 15.153,-5.488 16.176,-23.785 16.907,-37.472 1.246,-79.418 0.511,-158.8323 0,-238.25025 C 393.309,1.25 374.645,1.03125 355.98,0.878906 353.637,76.8594 357.957,153.055 353.125,228.957 316.383,169.012 295.156,101.453 264.488,38.5078 256.219,22.9141 246.629,2.71094 226.5,1.39844 201.762,-1.30859 168.824,-2.78125 155.941,23.5742 119.051,88.9375 100.898,163.523 59.6172,226.688 53.7617,151.52 58.2266,76.1289 56.4688,0.878906 37.8789,1.03125 19.2891,1.10156 0.695313,1.17969 0.257813,58.8555 0.402344,116.531 0.257813,174.137 0.476563,206.781 -2.08594,239.938 5.30859,272.07" /><path
         id="path52"
         style="fill:#202124;fill-opacity:1;fill-rule:nonzero;stroke:none"
         d="m 985.379,223.836 c 0.144,-28.547 0.219,-57.094 0.144,-85.641 55.627,-0.07 111.987,-5.632 167.247,2.489 28.18,15.152 25.99,59.507 4.25,79.711 -56.73,10.832 -114.48,2.414 -171.641,3.441 z m -58.559,54.676 c 73.78,1.683 147.63,1.316 221.49,1.023 24.96,-1.097 55.63,-5.051 69.24,-29.133 18.59,-35.863 16.47,-78.976 6.07,-116.89 -6.95,-22.469 -30.3,-31.985 -49.62,-41.2073 24.23,-29.7891 48.01,-60.0195 71.29,-90.54298 -22.91,-1.023439 -45.89,-1.242189 -68.73,0.14844 -23.13,27.88674 -43.77,57.60154 -64.34,87.32034 -42.38,-0.1485 -84.61,0.1445 -126.915,-0.2188 0.218,-29.3515 0,-58.7031 -0.149,-88.050762 C 965.543,1.10156 945.926,1.25 926.309,1.53906 926.383,93.9141 925.652,186.211 926.82,278.512" /><path
         id="path54"
         style="fill:#202124;fill-opacity:1;fill-rule:nonzero;stroke:none"
         d="m 1872.12,223.906 c -0.36,-28.472 -0.73,-56.945 -0.87,-85.418 51.82,2.27 103.86,-3.293 155.61,2.125 43.18,0.071 43.18,82.344 -0.37,83.075 -51.45,1.609 -102.91,0.218 -154.37,0.218 z m -59.28,55.117 c 81.02,0.075 162.12,2.489 243.15,-1.097 39.96,-2.27 63.9,-44.797 61.19,-81.539 2.93,-37.989 -2.78,-89.153 -43.77,-104.887 -66.83,-10.543 -134.39,-2.7109 -201.65,-4.3945 -0.22,-28.7617 -0.51,-57.5274 -0.73,-86.296906 -19.47,0.222656 -39.02,0.511716 -58.49,0.882816 -0.73,92.44139 -1.02,184.88659 0.3,277.33159" /><path
         id="path56"
         style="fill:#202124;fill-opacity:1;fill-rule:nonzero;stroke:none"
         d="m 2251.71,188.48 c -3.44,-29.058 -1.46,-58.48 -1.03,-87.613 -0.87,-15.1482 8.06,-27.6678 16.03,-39.5232 58.56,-8.9297 117.99,-6.2227 176.77,-1.6094 19.61,1.9023 24.45,24.664 24.96,40.8396 1.53,37.258 4.17,75.61 -6.59,111.84 -12.81,5.344 -25.62,12.008 -39.89,11.199 -46.63,0.223 -93.4,2.418 -139.87,-1.535 -17.42,-0.586 -28.48,-17.789 -30.38,-33.598 z m -58.41,14.641 c 0.59,39.305 34.55,72.461 73.41,74.363 72.03,2.27 144.78,7.614 216.07,-6 29.5,-16.175 45.53,-49.554 45.6,-82.492 0.96,-34.472 0.37,-68.945 -0.51,-103.4217 C 2527.43,51.7539 2507.45,14.5 2472.17,7.10938 2424.59,-5.26172 2374.82,3.44922 2326.29,0.808594 2285.82,1.17969 2234.66,-3.94922 2208.16,33.75 c -26.79,52.2578 -17.27,113.082 -14.86,169.371" /><path
         id="path58"
         style="fill:#202124;fill-opacity:1;fill-rule:nonzero;stroke:none"
         d="m 3153.75,231.887 c 12.59,32.351 48.02,45.304 80.23,46.695 66.6,2.488 133.21,0.516 199.82,0.441 0.22,-18.3 0.58,-36.597 0.87,-54.824 -59.65,-0.586 -119.23,0.293 -178.81,-0.437 -15.74,0.73 -30.81,-4.028 -44.65,-11.055 -3.58,-15.59 -7.61,-30.961 -10.98,-46.551 76.93,-1.097 153.93,0.367 230.86,-1.023 0,-15.664 0,-31.403 0,-47.067 -76.86,-1.093 -153.71,0.223 -230.49,-0.875 4.39,-18.5191 3.44,-40.7691 18.44,-54.8238 70.86,-14.0547 143.46,-0.7305 214.9,-7.0977 0.08,-18.0078 0.29,-35.9414 0.66,-53.87106 -64.34,-0.726565 -128.75,-0.808596 -193.09,-0.21875 -26.27,0.21875 -55.84,4.83203 -73.85,26.12891 -15.88,15.1484 -18.15,37.6211 -22.62,57.8945 0.74,48.8199 -6.44,99.3239 8.71,146.6839" /><path
         id="path60"
         style="fill:#202124;fill-opacity:1;fill-rule:nonzero;stroke:none"
         d="m 3579.01,224.199 c 0.22,-28.617 0.59,-57.308 -1.68,-85.855 56.07,-0.879 112.28,-3.879 168.35,1.316 17.56,14.492 19.69,36.965 18.95,58.262 -7.83,8.859 -12.73,23.789 -26.2,24.961 -52.99,6.222 -106.28,0.656 -159.42,1.316 z m -57.82,54.824 c 75.1,0.364 150.19,1.461 225.36,-0.074 25.4,-0.293 53.36,-9.59 66.1,-33.304 11.12,-27.957 10.54,-58.481 9.44,-87.977 -6.37,-29.352 -24.96,-57.461 -55.19,-65.5821 22.55,-30.5234 47.07,-59.6562 68.59,-91.05465 -22.84,-0.222656 -45.6,-0.152344 -68.37,-0.152344 -20.86,29.867194 -43.33,58.488294 -64.63,88.058594 -41.57,0.4375 -83.15,0.2188 -124.65,-0.1484 2.56,-29.3477 -0.88,-58.7735 -0.88,-88.199256 -19.54,0.371094 -39.08,0.660156 -58.55,1.031246 1.32,92.44141 -3.3,185.03091 2.78,277.40191" /><path
         id="path62"
         style="fill:#202124;fill-opacity:1;fill-rule:nonzero;stroke:none"
         d="m 4020.96,279.242 c 20.79,0.293 41.65,0.438 62.43,-0.074 21.23,-75.977 42.9,-151.879 67.12,-226.9024 30.16,71.7304 43.19,149.9024 76.27,220.3164 26.94,10.395 81.32,19.543 89.66,-19.836 23.72,-66.387 42.53,-134.312 67.42,-200.2616 27.15,74.0746 43.99,151.3676 67.12,226.6836 21.08,0.219 42.16,0.367 63.38,0.512 C 4487.28,195.652 4463.2,110.676 4435.6,26.7227 4431.8,15.8906 4425.43,1.17969 4411.96,1.10156 4389.78,-0.511719 4367.46,0.148438 4345.43,3.07813 4310,74.2969 4298.88,154.957 4265.5,227.055 4239.74,151.59 4219.24,74.2969 4188.06,0.808594 c -25.91,-0.21875 -51.82,-0.21875 -77.73,1.249996 -18.88,25.68751 -24.01,57.60161 -32.65,87.46481 -19.61,63.0196 -37.76,126.4806 -56.72,189.7186" /><path
         id="path64"
         style="fill:#202124;fill-opacity:1;fill-rule:nonzero;stroke:none"
         d="m 4586.6,278.949 c 19.55,0.149 39.24,0.293 58.85,0.149 0.59,-92.664 0.51,-185.3285 0.08,-277.99644 -19.62,0 -39.16,-0.07031 -58.71,0.14844 -0.51,92.5898 -0.22,185.109 -0.22,277.699" /><path
         id="path66"
         style="fill:#202124;fill-opacity:1;fill-rule:nonzero;stroke:none"
         d="m 4721.43,279.023 c 106.5,0.805 213.07,1.098 319.64,-0.218 -0.22,-18.594 -0.15,-37.184 0.07,-55.848 -44.06,-0.879 -88.05,-0.223 -132.12,-0.734 -0.07,-73.852 0.44,-147.7035 -0.36,-221.484719 -19.54,0.140625 -39.09,0.222657 -58.56,0.511719 -0.29,73.6328 -0.36,147.266 -0.07,220.973 -42.97,0.148 -85.86,-0.071 -128.75,0.804 0.22,18.664 0.22,37.332 0.15,55.996" /><path
         id="path68"
         style="fill:#202124;fill-opacity:1;fill-rule:nonzero;stroke:none"
         d="m 5639.14,79.3477 c -3.59,66.4613 -0.52,132.9963 -1.32,199.4573 19.47,0.363 39.01,0.656 58.63,0.875 1.75,-62.285 -1.61,-124.649 1.68,-186.8636 -1.54,-17.2734 14.42,-33.0117 31.4,-33.2305 54.31,-2.1211 108.84,-3.2929 163,1.9024 14.64,19.543 13.84,44.8667 14.64,68.0707 0.44,49.918 -0.36,99.765 -0.07,149.683 19.62,-0.074 39.31,-0.219 58.99,-0.367 -1.46,-71.363 5.27,-143.168 -4.17,-214.1641 -2.49,-37.6211 -42.16,-62.58199 -77.36,-62.87106 -59.07,-1.167965 -118.29,-3.07812 -177.21,1.60938 -37.91,2.62891 -68.51,38.57028 -68.21,75.89848" /><path
         id="path70"
         style="fill:#202124;fill-opacity:1;fill-rule:nonzero;stroke:none"
         d="m 6081.01,270.605 c 18.22,8.711 39.01,8.93 58.92,9.149 65.22,-0.074 130.43,0.219 195.65,-0.949 0,-18.153 0,-36.235 -0.07,-54.313 -72.54,-2.121 -145.08,2.196 -217.46,-2.488 -5.13,-16.832 -14.94,-45.746 7.39,-53.723 60.9,-8.785 123.48,5.196 184.08,-7.687 31.69,-9.66 37.18,-46.258 37.33,-74.6565 -1.1,-22.3242 0.22,-48.6016 -16.1,-66.0977 C 6319.84,7.39844 6303.23,1.03125 6286.9,1.46875 6209.1,0.0117188 6131.29,1.10156 6053.56,1.17969 c 0.15,18.14841 0.15,36.22661 0.07,54.30861 76.13,6.5859 152.69,-5.1992 228.74,3.8047 2.63,18.5195 5.27,37.5508 1.17,55.992 -62.14,6.078 -124.87,-1.535 -186.94,4.688 -27.67,5.121 -43.48,34.621 -43.33,60.894 -4.47,31.328 -1.61,70.856 27.74,89.738" /><path
         id="path72"
         style="fill:#202124;fill-opacity:1;fill-rule:nonzero;stroke:none"
         d="m 7352.33,0.710938 h -918.9 V 56.9336 h 918.9 V 0.710938" /></g></g></svg>